<?xml version="1.0" standalone="no"?>
<!DOCTYPE svg PUBLIC "-//W3C//DTD SVG 20010904//EN"
 "http://www.w3.org/TR/2001/REC-SVG-20010904/DTD/svg10.dtd">
<svg version="1.0" xmlns="http://www.w3.org/2000/svg"
 width="413.000000pt" height="403.000000pt" viewBox="0 0 413.000000 403.000000"
 preserveAspectRatio="xMidYMid meet">

<g transform="translate(0.000000,403.000000) scale(0.100000,-0.100000)"
fill="#000000" stroke="none">
<path d="M1916 3780 c-197 -31 -421 -126 -577 -244 -243 -184 -411 -460 -464
-760 -19 -112 -19 -318 0 -428 42 -241 160 -468 340 -653 48 -50 109 -123 136
-163 68 -104 131 -275 153 -419 6 -41 5 -43 -19 -43 l-25 0 0 -155 0 -155 60
0 60 0 0 -137 c0 -120 3 -142 20 -171 31 -50 75 -72 147 -72 l61 0 25 -43
c119 -201 385 -201 504 1 l25 42 61 0 c69 0 114 21 144 67 15 22 19 55 23 172
l5 145 58 -3 57 -2 0 155 0 156 -25 0 c-14 0 -25 2 -25 4 0 26 37 184 57 244
54 161 107 246 242 382 228 230 351 531 351 859 0 342 -120 634 -360 871 -177
176 -374 283 -620 336 -88 19 -329 27 -414 14z m309 -120 c129 -19 229 -50
350 -110 297 -147 500 -398 586 -725 21 -79 24 -111 23 -270 0 -151 -4 -192
-22 -257 -61 -221 -148 -370 -319 -543 -96 -98 -132 -149 -188 -268 -49 -104
-87 -225 -105 -339 l-13 -78 -203 0 -204 0 0 445 c0 384 2 445 15 445 8 0 40
10 72 22 42 15 75 38 119 82 84 84 104 140 111 308 l6 127 -79 3 -79 3 -3 166
c-3 184 -9 203 -57 181 -24 -11 -25 -12 -27 -179 l-3 -168 -120 0 -120 0 -3
167 c-2 155 -4 168 -22 178 -14 8 -26 8 -40 0 -18 -10 -20 -23 -22 -178 l-3
-167 -79 -3 -79 -3 6 -127 c7 -168 27 -224 111 -308 44 -44 77 -67 119 -82 32
-12 64 -22 72 -22 13 0 15 -61 15 -445 l0 -445 -205 0 c-189 0 -205 1 -205 18
0 43 -52 240 -86 324 -54 138 -118 238 -213 336 -200 206 -306 409 -341 651
-18 118 -8 324 20 431 84 318 294 578 585 721 202 99 426 138 630 109z m-9
-1229 c22 -10 50 -30 62 -45 40 -51 47 -161 15 -221 -33 -60 -101 -88 -210
-88 -88 1 -152 28 -183 79 -26 41 -36 129 -21 176 13 41 64 91 106 106 52 18
185 14 231 -7z m-11 -1692 c22 -5 53 -15 68 -21 30 -12 31 -21 7 -82 l-9 -24
-51 19 c-56 21 -184 27 -196 8 -11 -18 13 -26 102 -33 92 -7 159 -29 174 -57
26 -48 0 -122 -52 -150 -59 -32 -230 -28 -316 7 l-41 16 24 48 24 48 62 -19
c76 -24 167 -26 176 -4 3 9 3 19 -1 22 -3 4 -48 10 -98 14 -141 11 -178 30
-178 93 0 54 37 98 99 116 38 12 160 11 206 -1z"/>
<path d="M2090 3278 c-41 -94 -76 -174 -78 -179 -2 -5 19 -9 47 -9 28 0 51 -5
51 -10 0 -6 -7 -56 -15 -112 -15 -100 -14 -133 4 -87 5 13 39 91 75 173 36 82
66 152 66 157 0 5 -23 9 -51 9 -50 0 -51 0 -45 28 11 57 28 193 24 197 -2 2
-37 -73 -78 -167z"/>
<path d="M2015 2325 c-17 -16 -25 -35 -25 -60 0 -56 35 -85 103 -85 29 0 61 6
70 13 43 31 37 125 -8 145 -46 21 -113 15 -140 -13z"/>
</g>
</svg>
